{"title":"Tyga Ft. Various Artist - Rack City (Remix) (h264/mp4)","uid":7073181,"size":62469106,"categoryP":"video","categoryS":"music_videos","magnet":"?xt=urn:btih:b16e7ee7b7eb0ddd3f964f63c11ca7c66e7c8208&amp;dn=Tyga+Ft.+Various+Artist+-+Rack+City+%28Remix%29+%28h264%2Fmp4%29&amp;tr=udp%3A%2F%2Ftracker.openbittorrent.com%3A80&amp;tr=udp%3A%2F%2Fopen.demonii.com%3A1337&amp;tr=udp%3A%2F%2Ftracker.coppersurfer.tk%3A6969&amp;tr=udp%3A%2F%2Fexodus.desync.com%3A6969","seeders":1,"leechers":0,"uploader":"MusicVideos-HQ","files":1,"time":1330744890,"description":"General\n\nFormat                           : MPEG-4\nFormat profile                   : Base Media\nCodec ID                         : isom\nFile size                        : 59.6 MiB\nDuration                         : 4mn 19s\nOverall bit rate                 : 1 925 Kbps\nEncoded date                     : UTC 2012-03-01 04:27:24\nTagged date                      : UTC 2012-03-01 04:27:24\n\nVideo\nID                               : 1\nFormat                           : AVC\nFormat/Info                      : Advanced Video Codec\nFormat profile                   : &lt;a class=&quot;__cf_email__&quot; href=&quot;/cdn-cgi/l/email-protection&quot; data-cfemail=&quot;125a7b757a525e213c22&quot;&gt;[email&amp;#160;protected]&lt;/a&gt;&lt;script cf-hash='f9e31' type=&quot;text/javascript&quot;&gt;\n/* &lt;![CDATA[ */!function(){try{var t=&quot;currentScript&quot;in document?document.currentScript:function(){for(var t=document.getElementsByTagName(&quot;script&quot;),e=t.length;e--;)if(t[e].getAttribute(&quot;cf-hash&quot;))return t[e]}();if(t&amp;&amp;t.previousSibling){var e,r,n,i,c=t.previousSibling,a=c.getAttribute(&quot;data-cfemail&quot;);if(a){for(e=&quot;&quot;,r=parseInt(a.substr(0,2),16),n=2;a.length-n;n+=2)i=parseInt(a.substr(n,2),16)^r,e+=String.fromCharCode(i);e=document.createTextNode(e),c.parentNode.replaceChild(e,c)}}}catch(u){}}();/* ]]&gt; */&lt;/script&gt;\nFormat settings, CABAC           : Yes\nFormat settings, ReFrames        : 2 frames\nCodec ID                         : avc1\nCodec ID/Info                    : Advanced Video Coding\nDuration                         : 4mn 19s\nBit rate mode                    : Variable\nBit rate                         : 1 864 Kbps\nMaximum bit rate                 : 7 278 Kbps\nWidth                            : 720 pixels\nHeight                           : 480 pixels\nDisplay aspect ratio             : 16:9\nOriginal display aspect ratio    : 16:9\nFrame rate mode                  : Constant\nFrame rate                       : 29.970 fps\nStandard                         : NTSC\nColor space                      : YUV\nChroma subsampling               : 4:2:0\nBit depth                        : 8 bits\nScan type                        : Progressive\nBits/(Pixel*Frame)               : 0.180\nStream size                      : 57.3 MiB (96%)\n\n\nAudio\nID                               : 2\nFormat                           : AAC\nFormat/Info                      : Advanced Audio Codec\nFormat profile                   : LC\nCodec ID                         : 40\nDuration                         : 4mn 19s\nBit rate mode                    : Variable\nBit rate                         : 66.15 Kbps\nMaximum bit rate                 : 77.0 Kbps\nChannel(s)                       : 2 channels\nChannel positions                : Front: L R\nSampling rate                    : 44.1 KHz\nCompression mode                 : Lossy\nStream size                      : 2.03 MiB (3%)\n\n\n","torrent":{"xt":"urn:btih:b16e7ee7b7eb0ddd3f964f63c11ca7c66e7c8208","amp;dn":"Tyga+Ft.+Various+Artist+-+Rack+City+%28Remix%29+%28h264%2Fmp4%29","amp;tr":["udp%3A%2F%2Ftracker.openbittorrent.com%3A80","udp%3A%2F%2Fopen.demonii.com%3A1337","udp%3A%2F%2Ftracker.coppersurfer.tk%3A6969","udp%3A%2F%2Fexodus.desync.com%3A6969"],"infoHash":"b16e7ee7b7eb0ddd3f964f63c11ca7c66e7c8208","infoHashBuffer":{"type":"Buffer","data":[177,110,126,231,183,235,13,221,63,150,79,99,193,28,167,198,110,124,130,8]},"announce":[],"urlList":[]}}